<svg xmlns="http://www.w3.org/2000/svg" width="48" height="48" id="dentist"><path style="line-height:normal;text-indent:0;text-align:start;text-decoration-line:none;text-decoration-style:solid;text-decoration-color:#000;text-transform:none;block-progression:tb;isolation:auto;mix-blend-mode:normal" d="M24 0C10.751 0 0 10.751 0 24s10.751 24 24 24 24-10.751 24-24S37.249 0 24 0zm0 1c12.708 0 23 10.292 23 23 0 12.709-10.292 23-23 23S1 36.709 1 24C1 11.292 11.292 1 24 1zm-2.855 15.012a5.503 5.503 0 0 0-2.99 1.125 5.473 5.473 0 0 0-1.448 1.691c-1.07.286-1.936.624-2.57 1.031-.649.417-1.116.94-1.137 1.596-.021.657.422 1.203 1.049 1.627.623.421 1.481.772 2.558 1.066.388.939.833 1.601 1.215 2.313.53.986.99 2.132 1.182 4.58l-.002-.039a2 2 0 0 0 4.002 0V28.17c0-.677.473-1.168 1.002-1.168.53 0 1 .491 1 1.168v2.832a1.999 1.999 0 0 0 3.002 1.73c.618-.356 1-1.016 1-1.73l-.002.049c.245-2.452.706-3.605 1.224-4.594.375-.715.805-1.379 1.184-2.318.556-.155 1.081-.323 1.535-.518.766-.329 1.326-.688 1.686-1.137.36-.448.472-1.055.25-1.56-.223-.505-.677-.892-1.3-1.236-.59-.328-1.362-.612-2.292-.86a5.465 5.465 0 0 0-2.414-2.29c-1.595-.762-3.378-.626-4.87.142-.903-.466-1.885-.732-2.864-.668zm.064.998c.592-.04 1.161.207 1.732.404-.307.267-.634.507-.882.848a.5.5 0 0 0 .808.59 4.499 4.499 0 0 1 5.58-1.413 4.496 4.496 0 0 1 2.408 5.227c-.063.235-.134.422-.203.623-2.976.71-7.329.932-11.06.43a.5.5 0 1 0-.135.99c3.582.482 7.63.368 10.727-.268-.265.532-.549 1-.838 1.551-.557 1.063-1.081 2.41-1.336 4.96a.5.5 0 0 0-.002.05 1.002 1.002 0 0 1-2.002 0l.002-2.834c0-1.164-.873-2.168-2.002-2.168-1.13 0-2.002 1.004-2.002 2.168v2.834a.998.998 0 1 1-2 0 .5.5 0 0 0-.002-.041c-.2-2.552-.726-3.907-1.299-4.973-.572-1.065-1.139-1.793-1.549-3.322a4.499 4.499 0 0 1 4.055-5.656zm6.035 1.582v.002a.5.5 0 0 0-.103.986 2.495 2.495 0 0 1 1.867 2.418.5.5 0 1 0 1 0 3.504 3.504 0 0 0-2.615-3.385.5.5 0 0 0-.149-.021zm-11.027 1.44a5.475 5.475 0 0 0-.028 2.888c.004.013.009.022.012.035-.663-.224-1.233-.463-1.592-.705-.481-.325-.615-.592-.609-.766.006-.173.169-.46.678-.787.359-.23.909-.454 1.539-.666zm15.588 0c.51.17.966.347 1.297.53.513.285.786.576.869.764.083.189.078.29-.116.531-.193.242-.623.555-1.3.846-.221.095-.49.176-.746.262.004-.015.01-.026.013-.041a5.473 5.473 0 0 0-.017-2.893z" color="#000" font-family="sans-serif" font-weight="400" overflow="visible"></path></svg>