<svg xmlns="http://www.w3.org/2000/svg" xmlns:xlink="http://www.w3.org/1999/xlink" width="500" zoomAndPan="magnify" viewBox="0 0 375 374.999991" height="500" preserveAspectRatio="xMidYMid meet" version="1.0"><defs><g/><clipPath id="f9525a79de"><path d="M 90.617188 132.386719 L 162.617188 132.386719 L 162.617188 242.636719 L 90.617188 242.636719 Z M 90.617188 132.386719 " clip-rule="nonzero"/></clipPath><clipPath id="e8a0d180f8"><path d="M 239.941406 152.269531 L 269.335938 152.269531 L 269.335938 181.664062 L 239.941406 181.664062 Z M 239.941406 152.269531 " clip-rule="nonzero"/></clipPath><clipPath id="26fa715f46"><path d="M 254.636719 152.269531 C 246.519531 152.269531 239.941406 158.851562 239.941406 166.96875 C 239.941406 175.085938 246.519531 181.664062 254.636719 181.664062 C 262.753906 181.664062 269.335938 175.085938 269.335938 166.96875 C 269.335938 158.851562 262.753906 152.269531 254.636719 152.269531 Z M 254.636719 152.269531 " clip-rule="nonzero"/></clipPath><clipPath id="0f019e023f"><path d="M 245.164062 157.496094 L 263.914062 157.496094 L 263.914062 176.246094 L 245.164062 176.246094 Z M 245.164062 157.496094 " clip-rule="nonzero"/></clipPath></defs><g clip-path="url(#f9525a79de)"><path fill="#007ac2" d="M 133.074219 237.628906 L 158.382812 237.628906 L 158.382812 200.152344 L 195.871094 200.152344 L 195.871094 174.84375 L 158.382812 174.84375 L 158.382812 137.355469 L 133.074219 137.355469 L 133.074219 174.84375 L 95.585938 174.84375 L 95.585938 200.152344 L 133.074219 200.152344 Z M 163.351562 242.613281 L 128.105469 242.613281 L 128.105469 205.121094 L 90.617188 205.121094 L 90.617188 169.875 L 128.105469 169.875 L 128.105469 132.386719 L 163.351562 132.386719 L 163.351562 169.875 L 200.84375 169.875 L 200.84375 205.121094 L 163.351562 205.121094 L 163.351562 242.613281 " fill-opacity="1" fill-rule="nonzero"/></g><g fill="#007ac2" fill-opacity="1"><g transform="translate(155.334486, 183.749988)"><g><path d="M 33.828125 0 L 33.71875 -15.828125 L 26.1875 -3.125 L 21.03125 -3.125 L 13.484375 -15.28125 L 13.484375 0 L 2.828125 0 L 2.828125 -34.71875 L 12.453125 -34.71875 L 23.75 -16.21875 L 34.765625 -34.71875 L 44.390625 -34.71875 L 44.484375 0 Z M 33.828125 0 "/></g></g></g><g fill="#007ac2" fill-opacity="1"><g transform="translate(202.646865, 183.749988)"><g><path d="M 31.6875 -8.828125 L 31.6875 0 L 2.828125 0 L 2.828125 -34.71875 L 31.046875 -34.71875 L 31.046875 -25.890625 L 14.328125 -25.890625 L 14.328125 -21.828125 L 29.015625 -21.828125 L 29.015625 -13.390625 L 14.328125 -13.390625 L 14.328125 -8.828125 Z M 31.6875 -8.828125 "/></g></g></g><g fill="#007ac2" fill-opacity="1"><g transform="translate(236.023419, 183.749988)"><g><path d="M 2.828125 -34.71875 L 19.9375 -34.71875 C 23.800781 -34.71875 27.210938 -34.015625 30.171875 -32.609375 C 33.128906 -31.203125 35.425781 -29.191406 37.0625 -26.578125 C 38.707031 -23.972656 39.53125 -20.898438 39.53125 -17.359375 C 39.53125 -13.816406 38.707031 -10.738281 37.0625 -8.125 C 35.425781 -5.519531 33.128906 -3.515625 30.171875 -2.109375 C 27.210938 -0.703125 23.800781 0 19.9375 0 L 2.828125 0 Z M 19.4375 -9.125 C 21.945312 -9.125 23.953125 -9.84375 25.453125 -11.28125 C 26.960938 -12.71875 27.71875 -14.742188 27.71875 -17.359375 C 27.71875 -19.972656 26.960938 -22 25.453125 -23.4375 C 23.953125 -24.875 21.945312 -25.59375 19.4375 -25.59375 L 14.53125 -25.59375 L 14.53125 -9.125 Z M 19.4375 -9.125 "/></g></g></g><g fill="#007ac2" fill-opacity="1"><g transform="translate(155.334486, 225.749985)"><g><path d="M 2.828125 -34.71875 L 14.53125 -34.71875 L 14.53125 0 L 2.828125 0 Z M 2.828125 -34.71875 "/></g></g></g><g fill="#007ac2" fill-opacity="1"><g transform="translate(172.692277, 225.749985)"><g><path d="M 20.78125 0.796875 C 17.113281 0.796875 13.804688 0.03125 10.859375 -1.5 C 7.921875 -3.039062 5.613281 -5.191406 3.9375 -7.953125 C 2.269531 -10.710938 1.4375 -13.847656 1.4375 -17.359375 C 1.4375 -20.859375 2.269531 -23.988281 3.9375 -26.75 C 5.613281 -29.507812 7.921875 -31.660156 10.859375 -33.203125 C 13.804688 -34.742188 17.113281 -35.515625 20.78125 -35.515625 C 24.15625 -35.515625 27.160156 -34.914062 29.796875 -33.71875 C 32.441406 -32.53125 34.628906 -30.8125 36.359375 -28.5625 L 28.96875 -21.96875 C 26.8125 -24.675781 24.28125 -26.03125 21.375 -26.03125 C 18.925781 -26.03125 16.957031 -25.242188 15.46875 -23.671875 C 13.976562 -22.109375 13.234375 -20.003906 13.234375 -17.359375 C 13.234375 -14.710938 13.976562 -12.601562 15.46875 -11.03125 C 16.957031 -9.457031 18.925781 -8.671875 21.375 -8.671875 C 24.28125 -8.671875 26.8125 -10.03125 28.96875 -12.75 L 36.359375 -6.15625 C 34.628906 -3.90625 32.441406 -2.179688 29.796875 -0.984375 C 27.160156 0.203125 24.15625 0.796875 20.78125 0.796875 Z M 20.78125 0.796875 "/></g></g></g><g fill="#007ac2" fill-opacity="1"><g transform="translate(209.589984, 225.749985)"><g><path d="M 26.484375 -6.046875 L 13.296875 -6.046875 L 10.953125 0 L -0.9375 0 L 14.234375 -34.71875 L 25.734375 -34.71875 L 40.921875 0 L 28.8125 0 Z M 23.265625 -14.484375 L 19.890625 -23.203125 L 16.515625 -14.484375 Z M 23.265625 -14.484375 "/></g></g></g><g fill="#007ac2" fill-opacity="1"><g transform="translate(249.562489, 225.749985)"><g><path d="M 2.828125 -34.71875 L 14.53125 -34.71875 L 14.53125 -9.078125 L 30.203125 -9.078125 L 30.203125 0 L 2.828125 0 Z M 2.828125 -34.71875 "/></g></g></g><g clip-path="url(#e8a0d180f8)"><g clip-path="url(#26fa715f46)"><path fill="#007ac2" d="M 239.941406 152.269531 L 269.335938 152.269531 L 269.335938 181.664062 L 239.941406 181.664062 Z M 239.941406 152.269531 " fill-opacity="1" fill-rule="nonzero"/></g></g><g clip-path="url(#0f019e023f)"><path fill="#ffffff" d="M 251.503906 157.496094 C 250.574219 157.496094 249.820312 158.261719 249.820312 159.183594 L 249.820312 162.148438 L 246.851562 162.148438 C 245.921875 162.148438 245.164062 162.917969 245.164062 163.84375 L 245.164062 170.09375 C 245.164062 171.019531 245.925781 171.78125 246.851562 171.78125 L 249.820312 171.78125 L 249.820312 174.746094 C 249.820312 175.671875 250.582031 176.433594 251.503906 176.433594 L 257.765625 176.433594 C 258.683594 176.433594 259.449219 175.675781 259.449219 174.746094 L 259.449219 171.78125 L 262.417969 171.78125 C 263.339844 171.78125 264.101562 171.019531 264.101562 170.09375 L 264.101562 163.84375 C 264.101562 162.917969 263.347656 162.148438 262.417969 162.148438 L 259.449219 162.148438 L 259.449219 159.183594 C 259.449219 158.257812 258.691406 157.496094 257.765625 157.496094 Z M 251.503906 158.671875 L 257.765625 158.671875 C 258.039062 158.671875 258.277344 158.910156 258.277344 159.183594 L 258.277344 162.734375 C 258.277344 162.898438 258.332031 163.035156 258.449219 163.152344 C 258.5625 163.265625 258.699219 163.324219 258.863281 163.324219 L 262.417969 163.324219 C 262.703125 163.324219 262.929688 163.550781 262.929688 163.84375 L 262.929688 170.09375 C 262.929688 170.386719 262.707031 170.605469 262.417969 170.605469 L 258.863281 170.605469 C 258.699219 170.605469 258.5625 170.664062 258.449219 170.777344 C 258.332031 170.890625 258.277344 171.03125 258.277344 171.191406 L 258.277344 174.746094 C 258.277344 175.03125 258.042969 175.257812 257.765625 175.257812 L 251.503906 175.257812 C 251.214844 175.257812 250.992188 175.039062 250.992188 174.746094 L 250.992188 171.191406 C 250.992188 171.03125 250.9375 170.890625 250.820312 170.777344 C 250.707031 170.664062 250.566406 170.605469 250.40625 170.605469 L 246.851562 170.605469 C 246.5625 170.605469 246.339844 170.386719 246.339844 170.09375 L 246.339844 163.84375 C 246.339844 163.550781 246.566406 163.324219 246.851562 163.324219 L 250.40625 163.324219 C 250.566406 163.324219 250.707031 163.265625 250.820312 163.152344 C 250.9375 163.035156 250.992188 162.898438 250.992188 162.734375 L 250.992188 159.183594 C 250.992188 158.902344 251.21875 158.671875 251.503906 158.671875 Z M 251.503906 158.671875 " fill-opacity="1" fill-rule="evenodd"/></g><path fill="#ffffff" d="M 252.566406 163.820312 C 251.828125 163.839844 251.191406 164.1875 250.765625 164.679688 C 249.933594 165.652344 249.773438 167.117188 250.28125 168.359375 C 250.308594 168.425781 250.335938 168.480469 250.363281 168.535156 C 250.9375 169.78125 252.421875 171.164062 254.222656 172.84375 C 254.484375 173.066406 254.808594 173.058594 255.046875 172.84375 C 256.855469 171.15625 258.34375 169.769531 258.914062 168.519531 C 258.949219 168.441406 258.976562 168.382812 259.003906 168.316406 C 259.492188 167.082031 259.320312 165.640625 258.496094 164.679688 C 258.070312 164.1875 257.441406 163.839844 256.703125 163.820312 C 256.066406 163.804688 255.367188 164.019531 254.636719 164.476562 C 253.902344 164.019531 253.203125 163.804688 252.566406 163.820312 Z M 252.59375 164.996094 C 252.988281 164.988281 253.53125 165.144531 254.210938 165.605469 C 254.523438 165.832031 254.742188 165.8125 255.046875 165.613281 C 255.730469 165.144531 256.28125 164.988281 256.675781 164.996094 C 257.085938 165.007812 257.367188 165.164062 257.609375 165.445312 C 258.082031 165.996094 258.242188 167.101562 257.894531 167.933594 C 257.890625 167.941406 257.882812 167.953125 257.878906 167.960938 C 257.878906 167.96875 257.875 167.972656 257.871094 167.976562 C 257.574219 168.667969 256.28125 170.058594 254.636719 171.617188 C 253.003906 170.070312 251.714844 168.699219 251.402344 168.003906 C 251.390625 167.984375 251.390625 167.972656 251.382812 167.960938 C 251.019531 167.128906 251.183594 166.003906 251.660156 165.445312 C 251.902344 165.164062 252.183594 165.007812 252.59375 164.996094 Z M 252.59375 164.996094 " fill-opacity="1" fill-rule="evenodd"/><g fill="#007ac2" fill-opacity="1"><g transform="translate(166.930849, 238.524969)"><g><path d="M 5.390625 0.078125 C 4.492188 0.078125 3.6875 -0.117188 2.96875 -0.515625 C 2.25 -0.910156 1.6875 -1.457031 1.28125 -2.15625 C 0.875 -2.851562 0.671875 -3.640625 0.671875 -4.515625 C 0.671875 -5.378906 0.875 -6.160156 1.28125 -6.859375 C 1.6875 -7.566406 2.25 -8.113281 2.96875 -8.5 C 3.695312 -8.894531 4.507812 -9.09375 5.40625 -9.09375 C 6.070312 -9.09375 6.6875 -8.984375 7.25 -8.765625 C 7.820312 -8.546875 8.304688 -8.21875 8.703125 -7.78125 L 8.09375 -7.1875 C 7.382812 -7.894531 6.492188 -8.25 5.421875 -8.25 C 4.710938 -8.25 4.066406 -8.082031 3.484375 -7.75 C 2.898438 -7.425781 2.441406 -6.976562 2.109375 -6.40625 C 1.773438 -5.84375 1.609375 -5.210938 1.609375 -4.515625 C 1.609375 -3.804688 1.773438 -3.164062 2.109375 -2.59375 C 2.441406 -2.03125 2.898438 -1.582031 3.484375 -1.25 C 4.066406 -0.925781 4.710938 -0.765625 5.421875 -0.765625 C 6.503906 -0.765625 7.394531 -1.128906 8.09375 -1.859375 L 8.703125 -1.25 C 8.304688 -0.820312 7.820312 -0.492188 7.25 -0.265625 C 6.675781 -0.0351562 6.054688 0.078125 5.390625 0.078125 Z M 5.390625 0.078125 "/></g></g></g><g fill="#007ac2" fill-opacity="1"><g transform="translate(176.200956, 238.524969)"><g><path d="M 9.015625 -9.015625 L 9.015625 0 L 8.0625 0 L 8.0625 -4.15625 L 2.421875 -4.15625 L 2.421875 0 L 1.46875 0 L 1.46875 -9.015625 L 2.421875 -9.015625 L 2.421875 -5 L 8.0625 -5 L 8.0625 -9.015625 Z M 9.015625 -9.015625 "/></g></g></g><g fill="#007ac2" fill-opacity="1"><g transform="translate(186.683009, 238.524969)"><g><path d="M 7.84375 -0.828125 L 7.84375 0 L 1.46875 0 L 1.46875 -9.015625 L 7.65625 -9.015625 L 7.65625 -8.203125 L 2.421875 -8.203125 L 2.421875 -4.984375 L 7.09375 -4.984375 L 7.09375 -4.171875 L 2.421875 -4.171875 L 2.421875 -0.828125 Z M 7.84375 -0.828125 "/></g></g></g><g fill="#007ac2" fill-opacity="1"><g transform="translate(195.308468, 238.524969)"><g><path d="M 5.390625 0.078125 C 4.492188 0.078125 3.6875 -0.117188 2.96875 -0.515625 C 2.25 -0.910156 1.6875 -1.457031 1.28125 -2.15625 C 0.875 -2.851562 0.671875 -3.640625 0.671875 -4.515625 C 0.671875 -5.378906 0.875 -6.160156 1.28125 -6.859375 C 1.6875 -7.566406 2.25 -8.113281 2.96875 -8.5 C 3.695312 -8.894531 4.507812 -9.09375 5.40625 -9.09375 C 6.070312 -9.09375 6.6875 -8.984375 7.25 -8.765625 C 7.820312 -8.546875 8.304688 -8.21875 8.703125 -7.78125 L 8.09375 -7.1875 C 7.382812 -7.894531 6.492188 -8.25 5.421875 -8.25 C 4.710938 -8.25 4.066406 -8.082031 3.484375 -7.75 C 2.898438 -7.425781 2.441406 -6.976562 2.109375 -6.40625 C 1.773438 -5.84375 1.609375 -5.210938 1.609375 -4.515625 C 1.609375 -3.804688 1.773438 -3.164062 2.109375 -2.59375 C 2.441406 -2.03125 2.898438 -1.582031 3.484375 -1.25 C 4.066406 -0.925781 4.710938 -0.765625 5.421875 -0.765625 C 6.503906 -0.765625 7.394531 -1.128906 8.09375 -1.859375 L 8.703125 -1.25 C 8.304688 -0.820312 7.820312 -0.492188 7.25 -0.265625 C 6.675781 -0.0351562 6.054688 0.078125 5.390625 0.078125 Z M 5.390625 0.078125 "/></g></g></g><g fill="#007ac2" fill-opacity="1"><g transform="translate(204.578576, 238.524969)"><g><path d="M 4.265625 -4.234375 L 2.421875 -2.375 L 2.421875 0 L 1.46875 0 L 1.46875 -9.015625 L 2.421875 -9.015625 L 2.421875 -3.578125 L 7.71875 -9.015625 L 8.8125 -9.015625 L 4.90625 -4.9375 L 9.09375 0 L 7.953125 0 Z M 4.265625 -4.234375 "/></g></g></g><g fill="#007ac2" fill-opacity="1"><g transform="translate(213.745538, 238.524969)"><g/></g></g><g fill="#007ac2" fill-opacity="1"><g transform="translate(217.123523, 238.524969)"><g><path d="M 13.859375 -9.015625 L 10.8125 0 L 9.8125 0 L 7.171875 -7.703125 L 4.515625 0 L 3.515625 0 L 0.484375 -9.015625 L 1.453125 -9.015625 L 4.0625 -1.265625 L 6.75 -9.015625 L 7.640625 -9.015625 L 10.296875 -1.21875 L 12.9375 -9.015625 Z M 13.859375 -9.015625 "/></g></g></g><g fill="#007ac2" fill-opacity="1"><g transform="translate(231.447711, 238.524969)"><g><path d="M 7.84375 -0.828125 L 7.84375 0 L 1.46875 0 L 1.46875 -9.015625 L 7.65625 -9.015625 L 7.65625 -8.203125 L 2.421875 -8.203125 L 2.421875 -4.984375 L 7.09375 -4.984375 L 7.09375 -4.171875 L 2.421875 -4.171875 L 2.421875 -0.828125 Z M 7.84375 -0.828125 "/></g></g></g><g fill="#007ac2" fill-opacity="1"><g transform="translate(240.07317, 238.524969)"><g><path d="M 7.15625 -4.65625 C 7.75 -4.519531 8.207031 -4.257812 8.53125 -3.875 C 8.851562 -3.5 9.015625 -3.007812 9.015625 -2.40625 C 9.015625 -1.632812 8.726562 -1.039062 8.15625 -0.625 C 7.582031 -0.207031 6.738281 0 5.625 0 L 1.46875 0 L 1.46875 -9.015625 L 5.359375 -9.015625 C 6.367188 -9.015625 7.148438 -8.8125 7.703125 -8.40625 C 8.253906 -8.007812 8.53125 -7.441406 8.53125 -6.703125 C 8.53125 -6.203125 8.40625 -5.773438 8.15625 -5.421875 C 7.914062 -5.078125 7.582031 -4.820312 7.15625 -4.65625 Z M 2.421875 -8.234375 L 2.421875 -4.96875 L 5.296875 -4.96875 C 6.023438 -4.96875 6.585938 -5.101562 6.984375 -5.375 C 7.378906 -5.65625 7.578125 -6.0625 7.578125 -6.59375 C 7.578125 -7.132812 7.378906 -7.539062 6.984375 -7.8125 C 6.585938 -8.09375 6.023438 -8.234375 5.296875 -8.234375 Z M 5.609375 -0.78125 C 6.410156 -0.78125 7.019531 -0.914062 7.4375 -1.1875 C 7.851562 -1.46875 8.0625 -1.898438 8.0625 -2.484375 C 8.0625 -3.609375 7.242188 -4.171875 5.609375 -4.171875 L 2.421875 -4.171875 L 2.421875 -0.78125 Z M 5.609375 -0.78125 "/></g></g></g><g fill="#007ac2" fill-opacity="1"><g transform="translate(249.794532, 238.524969)"><g><path d="M 3.953125 0.078125 C 3.285156 0.078125 2.644531 -0.0234375 2.03125 -0.234375 C 1.414062 -0.453125 0.941406 -0.738281 0.609375 -1.09375 L 0.984375 -1.828125 C 1.304688 -1.503906 1.738281 -1.238281 2.28125 -1.03125 C 2.820312 -0.832031 3.378906 -0.734375 3.953125 -0.734375 C 4.765625 -0.734375 5.367188 -0.878906 5.765625 -1.171875 C 6.171875 -1.472656 6.375 -1.859375 6.375 -2.328125 C 6.375 -2.691406 6.265625 -2.976562 6.046875 -3.1875 C 5.828125 -3.40625 5.554688 -3.570312 5.234375 -3.6875 C 4.921875 -3.800781 4.484375 -3.929688 3.921875 -4.078125 C 3.242188 -4.242188 2.703125 -4.40625 2.296875 -4.5625 C 1.890625 -4.726562 1.539062 -4.972656 1.25 -5.296875 C 0.96875 -5.617188 0.828125 -6.0625 0.828125 -6.625 C 0.828125 -7.082031 0.945312 -7.5 1.1875 -7.875 C 1.425781 -8.25 1.796875 -8.546875 2.296875 -8.765625 C 2.796875 -8.984375 3.414062 -9.09375 4.15625 -9.09375 C 4.664062 -9.09375 5.164062 -9.019531 5.65625 -8.875 C 6.15625 -8.738281 6.585938 -8.546875 6.953125 -8.296875 L 6.625 -7.546875 C 6.25 -7.796875 5.84375 -7.976562 5.40625 -8.09375 C 4.976562 -8.21875 4.5625 -8.28125 4.15625 -8.28125 C 3.363281 -8.28125 2.765625 -8.128906 2.359375 -7.828125 C 1.960938 -7.523438 1.765625 -7.132812 1.765625 -6.65625 C 1.765625 -6.289062 1.875 -6 2.09375 -5.78125 C 2.3125 -5.5625 2.585938 -5.394531 2.921875 -5.28125 C 3.253906 -5.164062 3.695312 -5.035156 4.25 -4.890625 C 4.914062 -4.734375 5.453125 -4.570312 5.859375 -4.40625 C 6.265625 -4.25 6.609375 -4.007812 6.890625 -3.6875 C 7.179688 -3.363281 7.328125 -2.929688 7.328125 -2.390625 C 7.328125 -1.929688 7.203125 -1.515625 6.953125 -1.140625 C 6.710938 -0.765625 6.335938 -0.46875 5.828125 -0.25 C 5.316406 -0.03125 4.691406 0.078125 3.953125 0.078125 Z M 3.953125 0.078125 "/></g></g></g><g fill="#007ac2" fill-opacity="1"><g transform="translate(257.723765, 238.524969)"><g><path d="M 1.46875 -9.015625 L 2.421875 -9.015625 L 2.421875 0 L 1.46875 0 Z M 1.46875 -9.015625 "/></g></g></g><g fill="#007ac2" fill-opacity="1"><g transform="translate(261.617469, 238.524969)"><g><path d="M 3.21875 -8.203125 L 0.046875 -8.203125 L 0.046875 -9.015625 L 7.34375 -9.015625 L 7.34375 -8.203125 L 4.171875 -8.203125 L 4.171875 0 L 3.21875 0 Z M 3.21875 -8.203125 "/></g></g></g><g fill="#007ac2" fill-opacity="1"><g transform="translate(269.018086, 238.524969)"><g><path d="M 7.84375 -0.828125 L 7.84375 0 L 1.46875 0 L 1.46875 -9.015625 L 7.65625 -9.015625 L 7.65625 -8.203125 L 2.421875 -8.203125 L 2.421875 -4.984375 L 7.09375 -4.984375 L 7.09375 -4.171875 L 2.421875 -4.171875 L 2.421875 -0.828125 Z M 7.84375 -0.828125 "/></g></g></g></svg>